{"accessors":[{"bufferView":2,"componentType":5126,"count":1623,"max":[26.342103958129883,44.458526611328125,22.16255760192871],"min":[-26.34210968017578,-49.36826705932617,-23.254547119140625],"type":"VEC3"},{"bufferView":2,"byteOffset":19476,"componentType":5126,"count":1623,"max":[0.9998008608818054,0.9995649456977844,0.9999969601631165],"min":[-0.9999777674674988,-0.9999917149543762,-0.9999468922615051],"type":"VEC3"},{"bufferView":3,"componentType":5126,"count":1623,"max":[0.9999995827674866,0.999894917011261,0.9994090795516968,1],"min":[-0.9504521489143372,-0.8336355090141296,-0.9999304413795471,-1],"type":"VEC4"},{"bufferView":1,"componentType":5126,"count":1623,"max":[0.5269931554794312,0.9890887141227722],"min":[0.005818081088364124,0.08995714783668518],"type":"VEC2"},{"bufferView":1,"byteOffset":12984,"componentType":5126,"count":1623,"max":[0.5269931554794312,0.9890887141227722],"min":[0.005818081088364124,0.08995714783668518],"type":"VEC2"},{"bufferView":0,"componentType":5125,"count":9276,"max":[1622],"min":[0],"type":"SCALAR"},{"bufferView":2,"byteOffset":38952,"componentType":5126,"count":1187,"max":[43.562625885009766,51.25734329223633,21.261653900146484],"min":[-43.562625885009766,-71.62825775146484,-68.5479965209961],"type":"VEC3"},{"bufferView":2,"byteOffset":53196,"componentType":5126,"count":1187,"max":[0.9997563362121582,0.9970411658287048,0.9998863935470581],"min":[-0.9997563362121582,-0.3085384964942932,-0.9957979917526245],"type":"VEC3"},{"bufferView":3,"byteOffset":25968,"componentType":5126,"count":1187,"max":[0.9999998211860657,0.9977046251296997,0.9284424185752869,1],"min":[-0.9999998211860657,-0.9911320209503174,-0.9496827721595764,-1],"type":"VEC4"},{"bufferView":1,"byteOffset":25968,"componentType":5126,"count":1187,"max":[0.9877468347549438,0.9928594827651978],"min":[0.008182819001376629,0.008802501484751701],"type":"VEC2"},{"bufferView":1,"byteOffset":35464,"componentType":5126,"count":1187,"max":[0.9877468347549438,0.9928594827651978],"min":[0.008182819001376629,0.008802501484751701],"type":"VEC2"},{"bufferView":0,"byteOffset":37104,"componentType":5125,"count":5049,"max":[1186],"min":[0],"type":"SCALAR"},{"bufferView":2,"byteOffset":67440,"componentType":5126,"count":402,"max":[10.582456588745117,24.04654884338379,14.727596282958984],"min":[-10.582456588745117,16.28811264038086,10.848380088806152],"type":"VEC3"},{"bufferView":2,"byteOffset":72264,"componentType":5126,"count":402,"max":[0.9969174861907959,0.9969170689582825,1],"min":[-0.9969174861907959,-0.9969176054000854,0.07845647633075714],"type":"VEC3"},{"bufferView":3,"byteOffset":44960,"componentType":5126,"count":402,"max":[0.9962038993835449,0.29772281646728516,0.996629536151886,1],"min":[-0.7590277791023254,-0.8201457858085632,-0.9966296553611755,-1],"type":"VEC4"},{"bufferView":1,"byteOffset":44960,"componentType":5126,"count":402,"max":[0.5716298818588257,0.9808679819107056],"min":[0.01901189610362053,0.34909945726394653],"type":"VEC2"},{"bufferView":1,"byteOffset":48176,"componentType":5126,"count":402,"max":[0.5716298818588257,0.9808679819107056],"min":[0.01901189610362053,0.34909945726394653],"type":"VEC2"},{"bufferView":0,"byteOffset":57300,"componentType":5125,"count":2280,"max":[401],"min":[0],"type":"SCALAR"},{"bufferView":2,"byteOffset":77088,"componentType":5126,"count":657,"max":[86.21623229980469,134.19537353515625,18.23882293701172],"min":[-86.21623229980469,19.359472274780273,-7.28773307800293],"type":"VEC3"},{"bufferView":2,"byteOffset":84972,"componentType":5126,"count":657,"max":[0.9935475587844849,0.9335386753082275,1],"min":[-0.9935475587844849,-0.269387423992157,-0.9999545216560364],"type":"VEC3"},{"bufferView":3,"byteOffset":51392,"componentType":5126,"count":657,"max":[1,0.9999724626541138,0.9342439770698547,1],"min":[-1,-0.9977221488952637,-0.15833774209022522,-1],"type":"VEC4"},{"bufferView":1,"byteOffset":51392,"componentType":5126,"count":657,"max":[0.9884750843048096,0.9914135336875916],"min":[0.19082200527191162,0.04750838875770569],"type":"VEC2"},{"bufferView":1,"byteOffset":56648,"componentType":5126,"count":657,"max":[0.9884750843048096,0.9914135336875916],"min":[0.19082200527191162,0.04750838875770569],"type":"VEC2"},{"bufferView":0,"byteOffset":66420,"componentType":5125,"count":2310,"max":[656],"min":[0],"type":"SCALAR"}],"asset":{"extras":{"author":"The Ice Wolves (https://sketchfab.com/sarath.irn.kat005)","license":"CC-BY-4.0 (http://creativecommons.org/licenses/by/4.0/)","source":"https://sketchfab.com/models/a1d315908e9f45e5a3bc618bdfd2e7ee","title":"3dBustChallange Submission"},"generator":"Sketchfab-4.1.5","version":"2.0"},"bufferViews":[{"buffer":0,"byteLength":75660,"byteOffset":0,"name":"floatBufferViews","target":34963},{"buffer":0,"byteLength":61904,"byteOffset":75660,"byteStride":8,"name":"floatBufferViews","target":34962},{"buffer":0,"byteLength":92856,"byteOffset":137564,"byteStride":12,"name":"floatBufferViews","target":34962},{"buffer":0,"byteLength":61904,"byteOffset":230420,"byteStride":16,"name":"floatBufferViews","target":34962}],"buffers":[{"byteLength":292324,"uri":"data:application/octet-stream;base64,"}],"extensionsUsed":["KHR_materials_unlit"],"images":[{"uri":"data:application/octet-stream;base64,"}],"materials":[{"alphaMode":"BLEND","doubleSided":true,"extensions":{"KHR_materials_unlit":{}},"name":"lambert1","pbrMetallicRoughness":{"baseColorFactor":[1,1,1,1],"baseColorTexture":{"index":0,"texCoord":0},"metallicFactor":0,"roughnessFactor":1}}],"meshes":[{"name":"head_lambert1_0","primitives":[{"attributes":{"NORMAL":1,"POSITION":0,"TANGENT":2,"TEXCOORD_0":3,"TEXCOORD_1":4},"indices":5,"material":0,"mode":4}]},{"name":"hair_lambert1_0","primitives":[{"attributes":{"NORMAL":7,"POSITION":6,"TANGENT":8,"TEXCOORD_0":9,"TEXCOORD_1":10},"indices":11,"material":0,"mode":4}]},{"name":"eyes_lambert1_0","primitives":[{"attributes":{"NORMAL":13,"POSITION":12,"TANGENT":14,"TEXCOORD_0":15,"TEXCOORD_1":16},"indices":17,"material":0,"mode":4}]},{"name":"crown_lambert1_0","primitives":[{"attributes":{"NORMAL":19,"POSITION":18,"TANGENT":20,"TEXCOORD_0":21,"TEXCOORD_1":22},"indices":23,"material":0,"mode":4}]}],"nodes":[{"children":[1],"name":"RootNode (gltf orientation matrix)","rotation":[-0.7071067811865475,0,0,0.7071067811865476]},{"children":[2],"name":"RootNode (model correction matrix)"},{"children":[3],"matrix":[1,0,0,0,0,0,1,0,0,-1,0,0,0,0,0,1],"name":"a3eead2a076a4ac4800c4c309a3c180f.fbx"},{"children":[4,6,8,10],"name":"RootNode"},{"children":[5],"name":"head"},{"mesh":0,"name":"head_lambert1_0"},{"children":[7],"name":"hair"},{"mesh":1,"name":"hair_lambert1_0"},{"children":[9],"name":"eyes"},{"mesh":2,"name":"eyes_lambert1_0"},{"children":[11],"name":"crown"},{"mesh":3,"name":"crown_lambert1_0"}],"samplers":[{"magFilter":9729,"minFilter":9987,"wrapS":10497,"wrapT":10497}],"scene":0,"scenes":[{"name":"OSG_Scene","nodes":[0]}],"textures":[{"sampler":0,"source":0}]}